# Blender v2.81 (sub 16) OBJ File: 'Room.blend'
# www.blender.org
mtllib Room.mtl
o Plane
v -4.970529 0.000000 4.970529
v 4.970529 0.000000 4.970529
v -4.970529 0.000000 -4.970529
v 4.970529 0.000000 -4.970529
v -4.970529 -0.172907 4.339009
v 4.970529 -0.172907 4.339009
v -4.970529 4.970529 4.339009
v 4.970529 4.970529 4.339009
v -4.970529 -0.172907 -4.339009
v 4.970529 -0.172907 -4.339009
v -4.970529 4.970529 -4.339009
v 4.970529 4.970529 -4.339009
v -4.339009 -0.172906 -4.970528
v -4.339008 -0.172906 4.970529
v -4.339009 4.970529 -4.970528
v -4.339008 4.970529 4.970529
v 4.339009 -0.172906 -4.970528
v 4.339008 -0.172906 4.970529
v 4.339009 4.970529 -4.970528
v 4.339008 4.970529 4.970529
vt 1.000000 0.000000
vt 0.000000 1.000000
vt 0.000000 0.000000
vt 1.000000 0.000000
vt 0.000000 1.000000
vt 0.000000 0.000000
vt 1.000000 0.000000
vt 0.000000 1.000000
vt 0.000000 0.000000
vt 1.000000 0.000000
vt 0.000000 1.000000
vt 0.000000 0.000000
vt 1.000000 0.000000
vt 0.000000 1.000000
vt 0.000000 0.000000
vt 1.000000 1.000000
vt 1.000000 1.000000
vt 1.000000 1.000000
vt 1.000000 1.000000
vt 1.000000 1.000000
vn 0.0000 1.0000 0.0000
vn 0.0000 0.0000 1.0000
vn -1.0000 0.0000 0.0000
usemtl None
s off
f 2/1/1 3/2/1 1/3/1
f 6/4/2 7/5/2 5/6/2
f 10/7/2 11/8/2 9/9/2
f 14/10/3 15/11/3 13/12/3
f 18/13/3 19/14/3 17/15/3
f 2/1/1 4/16/1 3/2/1
f 6/4/2 8/17/2 7/5/2
f 10/7/2 12/18/2 11/8/2
f 14/10/3 16/19/3 15/11/3
f 18/13/3 20/20/3 19/14/3
